{"title":"The Terminator(1984)MP-4[DaScubaDude]","uid":12518981,"size":1312041660,"categoryP":"video","categoryS":"movies","magnet":"?xt=urn:btih:a81421ac40ca76f4764e6fd997e2d7f6afd6c037&amp;dn=The+Terminator%281984%29MP-4%5BDaScubaDude%5D&amp;tr=udp%3A%2F%2Ftracker.leechers-paradise.org%3A6969&amp;tr=udp%3A%2F%2Fzer0day.ch%3A1337&amp;tr=udp%3A%2F%2Fopen.demonii.com%3A1337&amp;tr=udp%3A%2F%2Ftracker.coppersurfer.tk%3A6969&amp;tr=udp%3A%2F%2Fexodus.desync.com%3A6969","seeders":0,"leechers":0,"uploader":"dascuba","files":1,"time":1443822098,"description":"The Terminator (1984)\r\nR  |  107 min  |  Action, Sci-Fi  |  26 October 1984 (USA)\r\n8.1 Your rating:   -/10   Ratings: 8.1/10 from 540,015 users   Metascore: 83/100 \r\nReviews: 668 user | 220 critic | 11 from Metacritic.com\r\nA human-looking indestructible cyborg is sent from 2029 to 1984 to assassinate a waitress, whose unborn son will lead humanity in a war against the machines, while a soldier from that war is sent to protect her at all costs.\r\n\r\nDirector: James Cameron\r\nWriters: James Cameron, Gale Anne Hurd, 1 more credit »\r\nStars: Arnold Schwarzenegger, Linda Hamilton, Michael \r\n\r\nGeneral\r\nComplete name                        :C:TerminatorTERMINATOR_SE_SIDEA_Title1.mp4\r\nFormat                                   : MPEG-4\r\nFormat profile                           : Base Media\r\nCodec ID                                 : isom\r\nFile size                                : 1.22 GiB\r\nDuration                                 : 1h 47mn\r\nOverall bit rate mode                    : Constant\r\nOverall bit rate                         : 1 633 Kbps\r\nMovie name                               : TERMINATOR_SE_SIDEA\r\nGenre                                    : Science_Fiction\r\nWriting application                      : Lavf54.6.100\r\n\r\nVideo\r\nID                                       : 1\r\nFormat                                   : MPEG-4 Visual\r\nFormat settings, BVOP                    : No\r\nFormat settings, QPel                    : No\r\nFormat settings, GMC                     : No warppoints\r\nFormat settings, Matrix                  : Default (H.263)\r\nCodec ID                                 : 20\r\nDuration                                 : 1h 47mn\r\nBit rate mode                            : Constant\r\nBit rate                                 : 1 499 Kbps\r\nWidth                                    : 720 pixels\r\nHeight                                   : 404 pixels\r\nDisplay aspect ratio                     : 16:9\r\nFrame rate mode                          : Constant\r\nFrame rate                               : 29.970 fps\r\nColor space                              : YUV\r\nChroma subsampling                       : 4:2:0\r\nBit depth                                : 8 bits\r\nScan type                                : Progressive\r\nCompression mode                         : Lossy\r\nBits/(Pixel*Frame)                       : 0.172\r\nStream size                              : 1.12 GiB (92%)\r\nWriting library                          : Lavc54.23.100\r\n\r\nAudio\r\nID                                       : 2\r\nFormat                                   : MPEG Audio\r\nFormat version                           : Version 1\r\nFormat profile                           : Layer 3\r\nCodec ID                                 : 6B\r\nDuration                                 : 1h 47mn\r\nBit rate mode                            : Constant\r\nBit rate                                 : 128 Kbps\r\nChannel(s)                               : 2 channels\r\nSampling rate                            : 44.1 KHz\r\nCompression mode                         : Lossy\r\nStream size                              : 98.1 MiB (8%)\r\nWriting library                          : LAME3.99.5","torrent":{"xt":"urn:btih:a81421ac40ca76f4764e6fd997e2d7f6afd6c037","amp;dn":"The+Terminator%281984%29MP-4%5BDaScubaDude%5D","amp;tr":["udp%3A%2F%2Ftracker.leechers-paradise.org%3A6969","udp%3A%2F%2Fzer0day.ch%3A1337","udp%3A%2F%2Fopen.demonii.com%3A1337","udp%3A%2F%2Ftracker.coppersurfer.tk%3A6969","udp%3A%2F%2Fexodus.desync.com%3A6969"],"infoHash":"a81421ac40ca76f4764e6fd997e2d7f6afd6c037","infoHashBuffer":{"type":"Buffer","data":[168,20,33,172,64,202,118,244,118,78,111,217,151,226,215,246,175,214,192,55]},"announce":[],"urlList":[]}}